<?xml version="1.0" standalone="no"?><!DOCTYPE svg PUBLIC "-//W3C//DTD SVG 1.1//EN" "http://www.w3.org/Graphics/SVG/1.1/DTD/svg11.dtd"><svg t="1582969881413" class="icon" viewBox="0 0 1024 1024" version="1.1" xmlns="http://www.w3.org/2000/svg" p-id="691" xmlns:xlink="http://www.w3.org/1999/xlink" width="200" height="200"><defs><style type="text/css"></style></defs><path d="M204.8 921.6h614.4a51.2 51.2 0 0 1 0 102.4H204.8a51.2 51.2 0 0 1 0-102.4zM51.2 0h921.6a51.2 51.2 0 0 1 51.2 51.2v716.8a51.2 51.2 0 0 1-51.2 51.2H51.2a51.2 51.2 0 0 1-51.2-51.2V51.2a51.2 51.2 0 0 1 51.2-51.2z m409.6 591.104V665.6h102.4v-74.3936c10.4448-7.2192 21.504-15.8208 32.6656-25.2928l60.928 60.928 72.448-72.448-60.928-60.928c9.472-11.1616 18.0736-22.2208 25.2928-32.6656H768V358.4h-74.3936a426.5984 426.5984 0 0 0-25.344-32.6656l60.928-60.928-72.3968-72.448-60.928 60.9792A428.288 428.288 0 0 0 563.2 228.0448V153.6H460.8v74.4448c-10.4448 7.2192-21.504 15.8208-32.6656 25.2928l-60.928-60.928-72.448 72.3968 60.928 60.928A426.5984 426.5984 0 0 0 330.4448 358.4H256v102.4h74.4448c7.168 10.4448 15.8208 21.504 25.2928 32.6656l-60.928 60.928 72.3968 72.448 60.928-61.0304c11.264 9.472 22.2208 18.0736 32.6656 25.2928z" p-id="692"></path></svg>