<?xml version="1.0" standalone="no"?><!DOCTYPE svg PUBLIC "-//W3C//DTD SVG 1.1//EN" "http://www.w3.org/Graphics/SVG/1.1/DTD/svg11.dtd"><svg t="1588909012868" class="icon" viewBox="0 0 1024 1024" version="1.1" xmlns="http://www.w3.org/2000/svg" p-id="6512" xmlns:xlink="http://www.w3.org/1999/xlink" width="200" height="200"><defs><style type="text/css"></style></defs><path d="M202.3 570.3c-6.5 0-13-2.8-17.7-8.4L107.3 470c-0.5-0.6-1-1.3-1.5-2-34.4-49.3-48.2-109.7-38.9-170.1 4.6-29.8 14.6-58 29.7-83.7 15.6-26.5 36-49.2 60.6-67.3 24.2-17.8 50.7-31.1 78.9-39.6 28.1-8.5 56.5-11.8 84.3-9.8 59.6 4.3 111.1 32.8 145.3 80.5l47.4 45 47.4-43.3c34.2-47.6 85.3-76.1 144.2-80.3 55.8-4 113.4 13.5 162.2 49.5 24.6 18.1 45 40.7 60.6 67.3 15.1 25.7 25.1 53.8 29.7 83.7 9.3 60.4-4.5 120.8-38.9 170.1 0 0 0 0.1-0.1 0.1-0.4 0.5-0.7 1-1.1 1.5l-0.1 0.1-48.8 59.3c-8.7 10.6-23.7 11.6-33.6 2.3-9.9-9.3-10.8-25.4-2.2-36l48.2-58.7c26.2-38 36.7-84.3 29.6-130.6-7.3-47.6-32.3-89.3-70.3-117.3-73.9-54.4-185-61.2-243 21.6-1.1 1.6-2.4 3.1-3.9 4.4l-63.5 58.1c-9.8 8.9-24.3 8.8-33.9-0.3l-63.1-60c-1.3-1.2-2.5-2.6-3.5-4.1-58.4-83.4-170.3-76.5-244.9-21.6-38 28-63 69.6-70.3 117.3-7.1 46.2 3.4 92.5 29.5 130.5l76.7 91.1c8.8 10.4 8 26.6-1.7 36-4.7 4.4-10.4 6.6-16 6.6z m-59.7-134.5c0 0.1 0 0.1 0 0z m416.3-254z m3.3-3.7c-0.1 0-0.1 0 0 0z" p-id="6513"></path><path d="M517.8 927.1c-17.9 0-34.6-8.7-45.9-23.5-1-0.8-1.9-1.8-2.7-2.8L174.5 550.6c-6.3-7.5-7.9-18.2-4.1-27.4 3.8-9.2 12.3-15.1 21.7-15.1h160.7c6.7 0 12.9-3.9 16.2-10.1l0.3-0.6 88.3-155.1c5-8.8 14.4-13.5 23.9-11.9 9.5 1.6 17.2 9.1 19.5 19.1l59 257.4c0.1 0.2 0.1 0.4 0.1 0.7 3.3 16.4 9.1 32.9 13.7 41.8 4-7 8.7-16.5 11.4-22 5.3-10.8 8.7-17.7 12.3-22.9l63.4-122.4c4.2-8.1 12.2-13.1 20.8-13.1h185.7c9.3 0 17.8 5.9 21.7 15 3.8 9.1 2.4 19.8-3.8 27.3l-319.2 389-4.8 6.2c-0.5 0.7-1 1.3-1.6 1.9-11.3 12.1-26.1 18.7-41.9 18.7z m-16.7-64.5c2.7 1.9 5 4.4 6.8 7.4 2.3 3.8 6.1 6.1 10 6.1 3.4 0 5.9-1.6 7.6-3.1l3-4c0.8-1.2 1.7-2.4 2.7-3.4L815 520H695.8l-57.5 111c-0.7 1.4-1.6 2.7-2.5 4-1.6 2.3-5.5 10.2-8.3 16.1-14.2 28.9-26.4 53.9-48.9 53.9-5.4 0-10.8-0.7-16.1-2.1-19.5-5.2-30-26.8-36.3-42.5-5.8-14.5-10.1-30.9-12.3-41.5l-45.3-197.7-58.4 102.5c-11.8 21.8-33.7 35.4-57.3 35.4H245.6l255.5 303.5z m134.6-227.5s-0.1 0 0 0c-0.1 0 0 0 0 0z" p-id="6514"></path></svg>