<?xml version="1.0" standalone="no"?><!DOCTYPE svg PUBLIC "-//W3C//DTD SVG 1.1//EN" "http://www.w3.org/Graphics/SVG/1.1/DTD/svg11.dtd"><svg t="1588832279486" class="icon" viewBox="0 0 1024 1024" version="1.1" xmlns="http://www.w3.org/2000/svg" p-id="2315" xmlns:xlink="http://www.w3.org/1999/xlink" width="200" height="200"><defs><style type="text/css"></style></defs><path d="M774.129466 599.646949c-51.08182 0-94.649533 31.502808-113.170221 76.234678l-211.806112-105.197505c6.526338-18.309023 10.512695-38.0997 10.512695-58.948703 0-4.056913 0-8.149103-0.493885-12.206015l216.815517-107.737486c22.542323 29.985875 58.066765 49.282668 97.648121 49.282668 67.59169 0 122.659868-55.914838 122.659868-124.529576s-55.068178-124.529576-122.659868-124.529576-122.659868 55.914838-122.659869 124.529576c0 16.262928 2.998588 31.502808 8.501878 45.754918l-206.302822 103.15141c-18.026803-65.545595-74.611913-114.863541-143.191373-121.460433V236.288697c39.546078-8.149103 69.108623-43.17966 69.108623-85.371551 0-47.765735-38.558308-86.888483-85.618493-86.888483-47.060185 0-85.618493 39.122748-85.618493 86.888483 0 42.19189 29.562545 77.257726 69.108623 85.371551v107.737486c-84.136838 8.642988-149.717711 80.291591-149.717712 167.709236S192.791539 671.33083 276.928377 679.444655v108.231371c-39.546078 7.61994-69.108623 43.214938-69.108623 85.37155 0 47.765735 38.558308 86.923761 85.618493 86.923761 47.060185 0 85.618493-39.122748 85.618493-86.923761 0-42.19189-29.562545-77.257726-69.108623-85.37155V679.444655c52.563475-5.07996 98.142006-35.55972 124.670686-79.268543l217.803287 108.266648c-0.493885 5.07996-0.98777 10.15992-0.98777 15.23988 0 68.614738 55.068178 124.529576 122.659868 124.529576s122.659868-55.914838 122.659869-124.529576c0.035278-68.120853-55.0329-124.035691-122.624591-124.035691z" fill="#333333" p-id="2316"></path></svg>