<?xml version="1.0" standalone="no"?><!DOCTYPE svg PUBLIC "-//W3C//DTD SVG 1.1//EN" "http://www.w3.org/Graphics/SVG/1.1/DTD/svg11.dtd"><svg t="1582972259427" class="icon" viewBox="0 0 1024 1024" version="1.1" xmlns="http://www.w3.org/2000/svg" p-id="9312" xmlns:xlink="http://www.w3.org/1999/xlink" width="200" height="200"><defs><style type="text/css"></style></defs><path d="M783.92332 467.520619l-108.097715-108.137692 60.295258-60.295259L917.05661 480.023415l30.142632 30.152626-211.078379 211.078378-60.295258-60.345229 108.097715-108.097715H331.024277V467.530613h452.899043z m-197.046463 556.479361H160.712409a85.470752 85.470752 0 0 1-60.485149-25.02558 85.458759 85.458759 0 0 1-25.055563-60.475155V86.080401C75.171697 38.877599 113.429653 0.579666 160.712409 0.579666h426.164448v85.280862h-383.479043a42.600454 42.600454 0 0 0-42.945255 42.305624v768.247342c0 22.896807 19.188943 42.29563 42.945255 42.29563h383.479043v85.290856z m0 0" p-id="9313"></path></svg>
