<svg t="1585621905234" class="icon" viewBox="0 0 1049 1024" version="1.1" xmlns="http://www.w3.org/2000/svg" p-id="1849" width="200" height="200"><path d="M523.853 0c-282.496 0-512 229.478-512 512s229.504 512 512 512c282.521 0 512-229.478 512-512S806.374 0 523.853 0z m0 974.618C268.442 974.618 61.235 767.41 61.235 512S268.442 49.382 523.853 49.382 986.496 256.59 986.496 512 779.264 974.618 523.853 974.618z m-292.557-170.01c8.218-8.243 406.86-178.304 406.86-178.304s169.14-398.618 177.358-406.86c8.243-8.218-406.861 177.382-406.861 177.382s-181.94 407.756-177.357 407.756z m338.278-234.982c-30.182 12.8-183.782 83.2-189.26 85.939 15.539-33.818 64-157.261 80.46-194.74l108.8 108.8z" p-id="1850"></path></svg>
