<?xml version="1.0" standalone="no"?><!DOCTYPE svg PUBLIC "-//W3C//DTD SVG 1.1//EN" "http://www.w3.org/Graphics/SVG/1.1/DTD/svg11.dtd"><svg t="1583051421328" class="icon" viewBox="0 0 1024 1024" version="1.1" xmlns="http://www.w3.org/2000/svg" p-id="11304" xmlns:xlink="http://www.w3.org/1999/xlink" width="200" height="200"><defs><style type="text/css"></style></defs><path d="M515 960.22c-246 0-447.35-201.73-447.35-448.28S269 63.65 515 63.65s447.37 201.73 447.37 448.29S761.06 960.22 515 960.22z m144.34-104.38A377.18 377.18 0 0 0 858 656.72a371.79 371.79 0 0 0 0-289.57A377.18 377.18 0 0 0 659.34 168a369.15 369.15 0 0 0-288.64 0A377.18 377.18 0 0 0 172 367.15a371.79 371.79 0 0 0 0 289.57 377.18 377.18 0 0 0 198.7 199.12 369.15 369.15 0 0 0 288.64 0z" p-id="11305"></path><path d="M600.06 293.81m42.61 0l0.01 0q42.61 0 42.61 42.61l0 340.54q0 42.61-42.61 42.61l-0.01 0q-42.61 0-42.61-42.61l0-340.54q0-42.61 42.61-42.61Z" p-id="11306"></path><path d="M345.61 292.68m43.72 0l-0.01 0q43.72 0 43.72 43.72l0 338.32q0 43.72-43.72 43.72l0.01 0q-43.72 0-43.72-43.72l0-338.32q0-43.72 43.72-43.72Z" p-id="11307"></path></svg>
