<?xml version="1.0" standalone="no"?><!DOCTYPE svg PUBLIC "-//W3C//DTD SVG 1.1//EN" "http://www.w3.org/Graphics/SVG/1.1/DTD/svg11.dtd"><svg t="1588909088496" class="icon" viewBox="0 0 1024 1024" version="1.1" xmlns="http://www.w3.org/2000/svg" p-id="7828" xmlns:xlink="http://www.w3.org/1999/xlink" width="200" height="200"><defs><style type="text/css"></style></defs><path d="M25.6 537.1392a25.6 25.6 0 1 1 0-51.2h141.1072a25.6 25.6 0 0 0 24.5248-18.2272l118.1184-393.7792a51.2 51.2 0 0 1 98.0992 0L665.6 934.4l118.1184-393.728a76.8 76.8 0 0 1 73.5744-54.784H998.4a25.6 25.6 0 1 1 0 51.2h-141.1072a25.6 25.6 0 0 0-24.5248 18.2272l-118.1184 393.7792a51.2 51.2 0 0 1-98.0992 0L358.4 88.6272 240.2816 482.4064a76.8 76.8 0 0 1-73.5744 54.784H25.6z" p-id="7829"></path></svg>
