<?xml version="1.0" standalone="no"?><!DOCTYPE svg PUBLIC "-//W3C//DTD SVG 1.1//EN" "http://www.w3.org/Graphics/SVG/1.1/DTD/svg11.dtd"><svg t="1583051498616" class="icon" viewBox="0 0 1024 1024" version="1.1" xmlns="http://www.w3.org/2000/svg" p-id="12341" xmlns:xlink="http://www.w3.org/1999/xlink" width="200" height="200"><defs><style type="text/css"></style></defs><path d="M921.6 204.8h-102.4V153.6l-153.6-153.6H102.4C46.08 0 0 46.08 0 102.4v614.4c0 56.32 46.08 102.4 102.4 102.4h102.4v97.28C204.8 972.8 250.88 1024 307.2 1024h614.4c56.32 0 102.4-51.2 102.4-107.52V312.32C1024 256 977.92 204.8 921.6 204.8zM460.8 102.4v204.8H307.2V102.4h153.6zM102.4 102.4h102.4v256c0 30.72 20.48 51.2 51.2 51.2h256c30.72 0 51.2-20.48 51.2-51.2V102.4h61.44L716.8 194.56V716.8H102.4V102.4z m819.2 757.76c0 30.72-20.48 56.32-51.2 56.32H358.4c-30.72 0-51.2-25.6-51.2-56.32V819.2h409.6c56.32 0 102.4-46.08 102.4-102.4V312.32h51.2c30.72 0 51.2 25.6 51.2 56.32v491.52z" p-id="12342"></path></svg>