<?xml version="1.0" standalone="no"?><!DOCTYPE svg PUBLIC "-//W3C//DTD SVG 1.1//EN" "http://www.w3.org/Graphics/SVG/1.1/DTD/svg11.dtd"><svg t="1582970182387" class="icon" viewBox="0 0 1024 1024" version="1.1" xmlns="http://www.w3.org/2000/svg" p-id="3808" xmlns:xlink="http://www.w3.org/1999/xlink" width="200" height="200"><defs><style type="text/css"></style></defs><path d="M123.04 392.32a214.56 214.56 0 0 0 19.52 46.4l-23.52 29.6a24.48 24.48 0 0 0 1.76 32l40.48 40.48a24.32 24.32 0 0 0 32 1.92L224 519.68a215.2 215.2 0 0 0 48 20.32l4.48 37.92a24.32 24.32 0 0 0 24.16 21.6h57.28a24.32 24.32 0 0 0 24.16-21.6l4.16-36.64a215.84 215.84 0 0 0 51.68-20.8l28.48 22.56a24.48 24.48 0 0 0 32-1.76l40.48-40.64a24 24 0 0 0 1.92-32l-22.24-28.16a210.4 210.4 0 0 0 21.28-50.72l34.08-4a24.32 24.32 0 0 0 21.6-24.16V304a24.32 24.32 0 0 0-21.6-24.16l-33.6-3.84a211.2 211.2 0 0 0-20.48-50.24l20.8-26.24a24.48 24.48 0 0 0-1.76-32l-40.96-40.48a24.32 24.32 0 0 0-32-1.92l-25.76 20.16a222.08 222.08 0 0 0-52.8-22.08L384 90.24a24.16 24.16 0 0 0-24-21.44h-57.92a24.32 24.32 0 0 0-24.16 21.44l-3.84 32.96a214.72 214.72 0 0 0-54.08 22.88L193.6 125.12a24.48 24.48 0 0 0-32 1.92l-40.8 40.48a24.32 24.32 0 0 0-1.76 32l22.08 28a205.6 205.6 0 0 0-20 50.88l-35.36 4A24.32 24.32 0 0 0 64 306.56v57.28a24.32 24.32 0 0 0 21.6 24.16z m208-155.2a94.88 94.88 0 1 1-94.88 94.88 94.88 94.88 0 0 1 94.72-94.88z" p-id="3809"></path><path d="M897.76 406.4l-30.24-25.44a23.84 23.84 0 0 0-32 0.8l-16 16a166.4 166.4 0 0 0-44.48-14.4l-4.8-23.04a24 24 0 0 0-25.44-19.2l-40.8 3.04A24 24 0 0 0 682.56 368v23.52A169.12 169.12 0 0 0 640 413.12L619.36 400a24.16 24.16 0 0 0-32 4.48l-25.6 30.56a24 24 0 0 0 0.96 32l17.44 18.56a176 176 0 0 0-12.8 42.72l-24.96 5.12a24.16 24.16 0 0 0-19.2 25.6l3.36 39.36a24 24 0 0 0 23.04 22.08l27.04 0.8a179.68 179.68 0 0 0 19.04 36.48l-15.04 22.88a24 24 0 0 0 4.48 32l30.4 25.6a24 24 0 0 0 32-0.8l19.84-18.56a172.32 172.32 0 0 0 40.64 13.12l5.44 27.2a24.16 24.16 0 0 0 25.6 19.2l39.36-3.36a24.32 24.32 0 0 0 21.6-24l0.8-26.56A172.96 172.96 0 0 0 842.08 704l21.76 14.4a24.16 24.16 0 0 0 32-4.48l25.6-30.24a24 24 0 0 0-0.96-32l-17.6-18.56a168.16 168.16 0 0 0 13.92-42.88l24-4.96A24.16 24.16 0 0 0 960 560l-3.36-39.52a24 24 0 0 0-23.2-22.08h-24a181.6 181.6 0 0 0-20.16-39.68l13.12-19.68a23.84 23.84 0 0 0-4.64-32.64z m-148.8 228.32a77.6 77.6 0 1 1 70.88-83.84 77.6 77.6 0 0 1-70.88 83.84zM261.12 740.96A24 24 0 0 0 240 764.64v24.32a23.84 23.84 0 0 0 20.96 24l17.92 2.4a134.56 134.56 0 0 0 12.64 31.04l-11.52 14.24a23.84 23.84 0 0 0 1.44 32l16.96 17.44a24.16 24.16 0 0 0 32 2.24l14.4-11.2a140.96 140.96 0 0 0 32 14.08l1.92 18.4a23.84 23.84 0 0 0 23.68 21.44h24.32a24 24 0 0 0 24.16-20.96l2.08-17.44a150.08 150.08 0 0 0 34.72-13.44l13.44 10.88a24 24 0 0 0 32-1.44L549.44 896a24 24 0 0 0 2.08-32l-10.24-13.28a138.72 138.72 0 0 0 14.56-33.6l16-1.76a24 24 0 0 0 21.6-23.52V768a23.84 23.84 0 0 0-20.8-24.16l-16-2.08a140.96 140.96 0 0 0-13.12-33.6l9.76-11.84a24.16 24.16 0 0 0-1.44-32l-16.64-17.92a23.84 23.84 0 0 0-32-2.24l-11.68 8.96a132.64 132.64 0 0 0-34.88-16l-1.6-15.04a24 24 0 0 0-23.04-20.8h-24.16A24 24 0 0 0 384 621.92l-1.92 15.04a149.12 149.12 0 0 0-36.32 14.72l-12-9.76a24 24 0 0 0-32 1.44l-17.44 17.12a23.84 23.84 0 0 0-2.24 32l10.24 13.28a146.88 146.88 0 0 0-13.76 33.6z m156.96-27.52a64 64 0 1 1-64 62.56 64 64 0 0 1 64-62.56z" p-id="3810"></path></svg>