<?xml version="1.0" standalone="no"?><!DOCTYPE svg PUBLIC "-//W3C//DTD SVG 1.1//EN" "http://www.w3.org/Graphics/SVG/1.1/DTD/svg11.dtd"><svg t="1582970733986" class="icon" viewBox="0 0 1024 1024" version="1.1" xmlns="http://www.w3.org/2000/svg" p-id="8556" xmlns:xlink="http://www.w3.org/1999/xlink" width="200" height="200"><defs><style type="text/css"></style></defs><path d="M787.692308 78.769231h78.76923v945.230769H157.538462V78.769231h78.76923V0h78.769231v78.769231h78.769231V0h78.769231v78.769231h78.76923V0h78.769231v78.769231h78.769231V0h78.769231v78.769231zM236.307692 354.461538v590.769231h551.384616V354.461538H236.307692zM236.307692 157.538462v118.153846h551.384616V157.538462H236.307692z m78.769231 275.692307h78.769231v78.769231H315.076923v-78.769231z m118.153846 0h275.692308v78.769231H433.230769v-78.769231z m-118.153846 157.538462h78.769231v78.769231H315.076923v-78.769231z m118.153846 0h275.692308v78.769231H433.230769v-78.769231z m-118.153846 157.538461h78.769231v78.769231H315.076923v-78.769231z m118.153846 0h196.923077v78.769231H433.230769v-78.769231z" p-id="8557"></path></svg>
