<?xml version="1.0" standalone="no"?><!DOCTYPE svg PUBLIC "-//W3C//DTD SVG 1.1//EN" "http://www.w3.org/Graphics/SVG/1.1/DTD/svg11.dtd"><svg t="1588908979430" class="icon" viewBox="0 0 1024 1024" version="1.1" xmlns="http://www.w3.org/2000/svg" p-id="6022" xmlns:xlink="http://www.w3.org/1999/xlink" width="200" height="200"><defs><style type="text/css"></style></defs><path d="M960 960l0 64L0 1024l0-64L960 960zM832 896 128 896l0-48.832L128 832 128 537.536C128 347.008 283.008 192 473.472 192 671.168 192 832 352.832 832 550.464L832 832l0 15.168L832 896zM384 512l0 320 384 0L768 550.464C768 388.096 635.904 256 473.472 256 318.272 256 192 382.272 192 537.536L192 832l128 0L320 512 384 512zM512 0 448 0l0 128 64 0L512 0zM266.624 157.696 176.128 67.2 130.88 112.448l90.496 90.496L266.624 157.696zM778.624 112.448 733.376 67.2l-90.496 90.496 45.248 45.248L778.624 112.448z" p-id="6023"></path></svg>